<?xml version="1.0" encoding="utf-8"?>
<!-- Generator: Adobe Illustrator 22.1.0, SVG Export Plug-In . SVG Version: 6.00 Build 0)  -->
<svg version="1.1" id="Layer_1" xmlns="http://www.w3.org/2000/svg" xmlns:xlink="http://www.w3.org/1999/xlink" x="0px" y="0px"
	 viewBox="0 0 490 152" style="enable-background:new 0 0 490 152;" xml:space="preserve">
<style type="text/css">
	.st0{fill:#ED6737;}
	.st1{fill:#ED5237;}
	.st2{fill:#ED4337;}
</style>
<g id="logograp" transform="matrix(0.5601472494713269, -0.28898944785943875, 0.28898944785943875, 0.5601472494713269, -51.15766911958684, 223.04630432730448)">
	<path id="_jWXY9ATlmGMpN790Sbb1f" class="st0" d="M217.6-163.4l142.8-12.5l1.5,17.5l-142.8,12.5L217.6-163.4z"/>
	<path id="_71ZX2ntNtIDN_-MZbjZzs" class="st1" d="M173.4-83.3l268-23.4l1.5,17.5l-268,23.4L173.4-83.3z"/>
	<path id="_bE_uhwVvN_OZHs2j2TxEK" class="st0" d="M151.5-82.1l229.7-92.8l6.6,16.3L158.1-65.8L151.5-82.1z"/>
	<path id="_JCnvRyFapwe4cXFH1PjCr" class="st2" d="M145-74.5c0,11.8,9.6,21.4,21.4,21.4c11.8,0,21.4-9.6,21.4-21.4c0,0,0,0,0,0
		c0-11.8-9.6-21.4-21.4-21.4C154.5-95.9,145-86.4,145-74.5C145-74.6,145-74.5,145-74.5"/>
	<path id="_vrFM0dR4VsLvinENqUEaR" class="st2" d="M355.2-169.1c0,11.8,9.6,21.4,21.4,21.4c11.8,0,21.4-9.6,21.4-21.4c0,0,0,0,0,0
		c0-11.8-9.6-21.4-21.4-21.4C364.8-190.5,355.2-180.9,355.2-169.1C355.2-169.1,355.2-169.1,355.2-169.1"/>
	<path id="_7_9iPmmqR1cz-sdhWQOtM" class="st1" d="M231.5-157.8L456-110.1l-3.7,17.2l-224.5-47.7L231.5-157.8z"/>
	<path id="_Dfllkl8BPTRBSeoidc5k9" class="st2" d="M419.8-99.8c0,11.8,9.6,21.4,21.4,21.4c11.8,0,21.4-9.6,21.4-21.4c0,0,0,0,0,0
		c0-11.8-9.6-21.4-21.4-21.4C429.4-121.2,419.8-111.6,419.8-99.8C419.8-99.8,419.8-99.8,419.8-99.8"/>
	<path id="_lfNJqLmqnxY6-iWc0D14L" class="st2" d="M199.1-155.4c0,11.8,9.6,21.4,21.4,21.4c11.8,0,21.4-9.6,21.4-21.4c0,0,0,0,0,0
		c0-11.8-9.6-21.4-21.4-21.4C208.7-176.7,199.1-167.2,199.1-155.4C199.1-155.4,199.1-155.4,199.1-155.4"/>
</g>
<path fill="#777777" id="logoname" class="logoname" d="M190.8,116.2c-3.7,0-7.3-0.4-10.8-1.1c-3.5-0.8-6.4-1.8-8.9-3.1l0,0l1.5-13.7
	c2.6,1.6,5.5,2.9,8.6,3.9c3.1,1,6.1,1.5,8.8,1.5l0,0c2.6,0,4.8-0.5,6.5-1.4c1.8-1,2.6-2.3,2.6-4.2l0,0c0-1.4-0.6-2.6-1.8-3.4
	s-3.5-1.8-7-3l0,0l-3.1-1.1c-3.3-1.2-5.9-2.4-8-3.5c-2.1-1.1-3.9-2.8-5.6-5.1c-1.7-2.3-2.5-5.3-2.5-9l0,0c0-5.9,2.2-10.6,6.7-13.9
	c4.5-3.3,10.3-5,17.4-5l0,0c5.6,0,11.6,1.1,17.8,3.3l0,0L211,70.9c-2.2-1.3-4.7-2.3-7.5-3.1c-2.8-0.8-5.4-1.2-7.8-1.2l0,0
	c-2.5,0-4.5,0.4-6,1.3c-1.5,0.8-2.2,2.1-2.2,3.7l0,0c0,1.5,0.6,2.7,1.8,3.4c1.2,0.8,3.3,1.6,6.2,2.6l0,0c2.3,0.8,3.6,1.3,4,1.5l0,0
	c3.2,1.3,5.9,2.6,8,3.8c2.1,1.2,4,3,5.6,5.4s2.4,5.5,2.4,9.2l0,0c0,6.3-2.2,10.9-6.7,14.1C204.2,114.6,198.2,116.2,190.8,116.2
	L190.8,116.2z M233.7,45.9V31h18.4v14.9H233.7z M224.8,114.5v-13.8h11V69.4h-11V55.6h27.1v45.1h9.8v13.8H224.8z M272.4,114.5V55.6
	h15.8v10.2c2.4-4,5.3-7,8.5-8.9c3.2-1.9,6.9-2.9,11.2-2.9l0,0c6.3,0,11.3,1.9,14.9,5.7c3.6,3.8,5.4,9,5.4,15.7l0,0v39.1H312V77.9
	c0-3.1-0.8-5.4-2.3-7.1c-1.5-1.7-3.6-2.6-6.2-2.6l0,0c-3.1,0-5.9,1.1-8.7,3.4c-2.7,2.3-4.8,5.2-6.3,8.7l0,0v34.2H272.4z
	 M375.9,135.5c-10.3-5.9-18.3-13.5-23.9-22.8s-8.5-19.6-8.5-31.2l0,0c0-11.7,2.8-22.2,8.5-31.5c5.7-9.3,13.6-16.9,23.8-22.6l0,0
	l2.7,5.5c-6.8,7.2-11.7,14.6-14.6,22s-4.5,16.3-4.5,26.5l0,0c0,10.2,1.5,19,4.5,26.5c3,7.4,7.9,14.8,14.7,22.1l0,0L375.9,135.5z
	 M424.3,115.4l-12.7-19l-11.8,18.1h-18.3l21.7-30.4l-19.7-28.5l17.8-0.9l11.1,16.7l10.3-15.8h17.6L421,83.3l21.2,31.2L424.3,115.4z
	 M447.6,135.5l-2.9-5.5c6.8-7.3,11.7-14.7,14.7-22.1c3-7.4,4.5-16.3,4.5-26.5l0,0c0-10.2-1.5-19-4.5-26.5s-7.9-14.8-14.6-22l0,0
	l2.7-5.5c10.2,5.8,18.2,13.3,23.8,22.6c5.7,9.3,8.5,19.8,8.5,31.5l0,0c0,11.6-2.8,22-8.5,31.2C465.9,122,457.9,129.6,447.6,135.5
	L447.6,135.5z"/>
</svg>
